# Made in Blockbench 5.1.5
mtllib power_flower_a.mtl

o base
v 0.5 0.0625 0.5
v 0.5 0.0625 -0.5
v 0.5 0 0.5
v 0.5 0 -0.5
v -0.5 0.0625 -0.5
v -0.5 0.0625 0.5
v -0.5 0 -0.5
v -0.5 0 0.5
vt 0 0.0625
vt 1 0.0625
vt 1 0
vt 0 0
vt 0 0.0625
vt 1 0.0625
vt 1 0
vt 0 0
vt 0 0.0625
vt 1 0.0625
vt 1 0
vt 0 0
vt 0 0.0625
vt 1 0.0625
vt 1 0
vt 0 0
vt 0 1
vt 1 1
vt 1 0
vt 0 0
vt 0 1
vt 1 1
vt 1 0
vt 0 0
vn 0 0 -1
vn 1 0 0
vn 0 0 1
vn -1 0 0
vn 0 1 0
vn 0 -1 0
usemtl m_e61265d7-1616-6532-f49a-4c0316c19a63
f 4/4/1 7/3/1 5/2/1 2/1/1
f 3/8/2 4/7/2 2/6/2 1/5/2
f 8/12/3 3/11/3 1/10/3 6/9/3
f 7/16/4 8/15/4 6/14/4 5/13/4
f 6/20/5 1/19/5 2/18/5 5/17/5
f 7/24/6 4/23/6 3/22/6 8/21/6
o base
v -0.4375 0.125 0.5
v -0.4375 0.125 -0.5
v -0.4375 0.0625 0.5
v -0.4375 0.0625 -0.5
v -0.5 0.125 -0.5
v -0.5 0.125 0.5
v -0.5 0.0625 -0.5
v -0.5 0.0625 0.5
vt 0.9375 0.125
vt 1 0.125
vt 1 0.0625
vt 0.9375 0.0625
vt 0 0.125
vt 1 0.125
vt 1 0.0625
vt 0 0.0625
vt 0 0.125
vt 0.0625 0.125
vt 0.0625 0.0625
vt 0 0.0625
vt 0 0.125
vt 1 0.125
vt 1 0.0625
vt 0 0.0625
vt 0 1
vt 0.0625 1
vt 0.0625 0
vt 0 0
vn 0 0 -1
vn 1 0 0
vn 0 0 1
vn -1 0 0
vn 0 1 0
usemtl m_e61265d7-1616-6532-f49a-4c0316c19a63
f 12/28/7 15/27/7 13/26/7 10/25/7
f 11/32/8 12/31/8 10/30/8 9/29/8
f 16/36/9 11/35/9 9/34/9 14/33/9
f 15/40/10 16/39/10 14/38/10 13/37/10
f 14/44/11 9/43/11 10/42/11 13/41/11
o base
v 0.5 0.125 0.5
v 0.5 0.125 -0.5
v 0.5 0.0625 0.5
v 0.5 0.0625 -0.5
v 0.4375 0.125 -0.5
v 0.4375 0.125 0.5
v 0.4375 0.0625 -0.5
v 0.4375 0.0625 0.5
vt 0 0.125
vt 0.0625 0.125
vt 0.0625 0.0625
vt 0 0.0625
vt 0 0.125
vt 1 0.125
vt 1 0.0625
vt 0 0.0625
vt 0.9375 0.125
vt 1 0.125
vt 1 0.0625
vt 0.9375 0.0625
vt 0 0.125
vt 1 0.125
vt 1 0.0625
vt 0 0.0625
vt 0.9375 1
vt 1 1
vt 1 0
vt 0.9375 0
vn 0 0 -1
vn 1 0 0
vn 0 0 1
vn -1 0 0
vn 0 1 0
usemtl m_e61265d7-1616-6532-f49a-4c0316c19a63
f 20/48/12 23/47/12 21/46/12 18/45/12
f 19/52/13 20/51/13 18/50/13 17/49/13
f 24/56/14 19/55/14 17/54/14 22/53/14
f 23/60/15 24/59/15 22/58/15 21/57/15
f 22/64/16 17/63/16 18/62/16 21/61/16
o base
v 0.4375 0.125 -0.4375
v 0.4375 0.125 -0.5
v 0.4375 0.0625 -0.4375
v 0.4375 0.0625 -0.5
v -0.4375 0.125 -0.5
v -0.4375 0.125 -0.4375
v -0.4375 0.0625 -0.5
v -0.4375 0.0625 -0.4375
vt 0.0625 0.125
vt 0.9375 0.125
vt 0.9375 0.0625
vt 0.0625 0.0625
vt 0.0625 0.125
vt 0.9375 0.125
vt 0.9375 0.0625
vt 0.0625 0.0625
vt 0.0625 1
vt 0.9375 1
vt 0.9375 0.9375
vt 0.0625 0.9375
vn 0 0 -1
vn 0 0 1
vn 0 1 0
usemtl m_e61265d7-1616-6532-f49a-4c0316c19a63
f 28/68/17 31/67/17 29/66/17 26/65/17
f 32/72/18 27/71/18 25/70/18 30/69/18
f 30/76/19 25/75/19 26/74/19 29/73/19
o base
v 0.4375 0.125 0.5
v 0.4375 0.125 0.4375
v 0.4375 0.0625 0.5
v 0.4375 0.0625 0.4375
v -0.4375 0.125 0.4375
v -0.4375 0.125 0.5
v -0.4375 0.0625 0.4375
v -0.4375 0.0625 0.5
vt 0.0625 0.125
vt 0.9375 0.125
vt 0.9375 0.0625
vt 0.0625 0.0625
vt 0.0625 0.125
vt 0.9375 0.125
vt 0.9375 0.0625
vt 0.0625 0.0625
vt 0.0625 0.0625
vt 0.9375 0.0625
vt 0.9375 0
vt 0.0625 0
vn 0 0 -1
vn 0 0 1
vn 0 1 0
usemtl m_e61265d7-1616-6532-f49a-4c0316c19a63
f 36/80/20 39/79/20 37/78/20 34/77/20
f 40/84/21 35/83/21 33/82/21 38/81/21
f 38/88/22 33/87/22 34/86/22 37/85/22