# Made in Blockbench 5.1.5
mtllib power_flower_b.mtl

o cube
v 0.09375 0.25 0.09375
v 0.09375 0.25 -0.09375
v 0.09375 0.0625 0.09375
v 0.09375 0.0625 -0.09375
v -0.09375 0.25 -0.09375
v -0.09375 0.25 0.09375
v -0.09375 0.0625 -0.09375
v -0.09375 0.0625 0.09375
vt 0 1
vt 1 1
vt 1 0
vt 0 0
vt 0 1
vt 1 1
vt 1 0
vt 0 0
vt 0 1
vt 1 1
vt 1 0
vt 0 0
vt 0 1
vt 1 1
vt 1 0
vt 0 0
vn 0 0 -1
vn 1 0 0
vn 0 0 1
vn -1 0 0
usemtl m_6cbae7ee-407f-4413-6b0e-0c2c27e5c5b4
f 4/4/1 7/3/1 5/2/1 2/1/1
f 3/8/2 4/7/2 2/6/2 1/5/2
f 8/12/3 3/11/3 1/10/3 6/9/3
f 7/16/4 8/15/4 6/14/4 5/13/4
o cube
v -0.09375 0.4375 0.09375
v -0.09375 0.4375 -0.09375
v -0.09375 0.25 0.09375
v -0.09375 0.25 -0.09375
v -0.28125 0.4375 -0.09375
v -0.28125 0.4375 0.09375
v -0.28125 0.25 -0.09375
v -0.28125 0.25 0.09375
vt 0 1
vt 1 1
vt 1 0
vt 0 0
vt 0 1
vt 1 1
vt 1 0
vt 0 0
vt 0 1
vt 1 1
vt 1 0
vt 0 0
vt 0 1
vt 1 1
vt 1 0
vt 0 0
vn 0 0 -1
vn 0 0 1
vn -1 0 0
vn 0 -1 0
usemtl m_6cbae7ee-407f-4413-6b0e-0c2c27e5c5b4
f 12/20/5 15/19/5 13/18/5 10/17/5
f 16/24/6 11/23/6 9/22/6 14/21/6
f 15/28/7 16/27/7 14/26/7 13/25/7
f 15/32/8 12/31/8 11/30/8 16/29/8
o cube
v 0.09375 0.4375 0.28125
v 0.09375 0.4375 0.09375
v 0.09375 0.25 0.28125
v 0.09375 0.25 0.09375
v -0.09375 0.4375 0.09375
v -0.09375 0.4375 0.28125
v -0.09375 0.25 0.09375
v -0.09375 0.25 0.28125
vt 0 1
vt 1 1
vt 1 0
vt 0 0
vt 0 1
vt 1 1
vt 1 0
vt 0 0
vt 0 1
vt 1 1
vt 1 0
vt 0 0
vt 0 1
vt 1 1
vt 1 0
vt 0 0
vn 1 0 0
vn 0 0 1
vn -1 0 0
vn 0 -1 0
usemtl m_6cbae7ee-407f-4413-6b0e-0c2c27e5c5b4
f 19/36/9 20/35/9 18/34/9 17/33/9
f 24/40/10 19/39/10 17/38/10 22/37/10
f 23/44/11 24/43/11 22/42/11 21/41/11
f 23/48/12 20/47/12 19/46/12 24/45/12
o cube
v 0.28125 0.4375 0.09375
v 0.28125 0.4375 -0.09375
v 0.28125 0.25 0.09375
v 0.28125 0.25 -0.09375
v 0.09375 0.4375 -0.09375
v 0.09375 0.4375 0.09375
v 0.09375 0.25 -0.09375
v 0.09375 0.25 0.09375
vt 0 1
vt 1 1
vt 1 0
vt 0 0
vt 0 1
vt 1 1
vt 1 0
vt 0 0
vt 0 1
vt 1 1
vt 1 0
vt 0 0
vt 0 1
vt 1 1
vt 1 0
vt 0 0
vn 0 0 -1
vn 1 0 0
vn 0 0 1
vn 0 -1 0
usemtl m_6cbae7ee-407f-4413-6b0e-0c2c27e5c5b4
f 28/52/13 31/51/13 29/50/13 26/49/13
f 27/56/14 28/55/14 26/54/14 25/53/14
f 32/60/15 27/59/15 25/58/15 30/57/15
f 31/64/16 28/63/16 27/62/16 32/61/16
o cube
v 0.09375 0.4375 -0.09375
v 0.09375 0.4375 -0.28125
v 0.09375 0.25 -0.09375
v 0.09375 0.25 -0.28125
v -0.09375 0.4375 -0.28125
v -0.09375 0.4375 -0.09375
v -0.09375 0.25 -0.28125
v -0.09375 0.25 -0.09375
vt 0 1
vt 1 1
vt 1 0
vt 0 0
vt 0 1
vt 1 1
vt 1 0
vt 0 0
vt 0 1
vt 1 1
vt 1 0
vt 0 0
vt 0 1
vt 1 1
vt 1 0
vt 0 0
vn 0 0 -1
vn 1 0 0
vn -1 0 0
vn 0 -1 0
usemtl m_6cbae7ee-407f-4413-6b0e-0c2c27e5c5b4
f 36/68/17 39/67/17 37/66/17 34/65/17
f 35/72/18 36/71/18 34/70/18 33/69/18
f 39/76/19 40/75/19 38/74/19 37/73/19
f 39/80/20 36/79/20 35/78/20 40/77/20
o cube
v 0.09375 0.625 -0.28125
v 0.09375 0.625 -0.46875
v 0.09375 0.4375 -0.28125
v 0.09375 0.4375 -0.46875
v -0.09375 0.625 -0.46875
v -0.09375 0.625 -0.28125
v -0.09375 0.4375 -0.46875
v -0.09375 0.4375 -0.28125
vt 0 1
vt 1 1
vt 1 0
vt 0 0
vt 0 1
vt 1 1
vt 1 0
vt 0 0
vt 0 1
vt 1 1
vt 1 0
vt 0 0
vt 0 1
vt 1 1
vt 1 0
vt 0 0
vt 0 1
vt 1 1
vt 1 0
vt 0 0
vn 0 0 -1
vn 1 0 0
vn -1 0 0
vn 0 1 0
vn 0 -1 0
usemtl m_6cbae7ee-407f-4413-6b0e-0c2c27e5c5b4
f 44/84/21 47/83/21 45/82/21 42/81/21
f 43/88/22 44/87/22 42/86/22 41/85/22
f 47/92/23 48/91/23 46/90/23 45/89/23
f 46/96/24 41/95/24 42/94/24 45/93/24
f 47/100/25 44/99/25 43/98/25 48/97/25
o cube
v -0.09375 0.625 -0.09375
v -0.09375 0.625 -0.28125
v -0.09375 0.4375 -0.09375
v -0.09375 0.4375 -0.28125
v -0.28125 0.625 -0.28125
v -0.28125 0.625 -0.09375
v -0.28125 0.4375 -0.28125
v -0.28125 0.4375 -0.09375
vt 0 1
vt 1 1
vt 1 0
vt 0 0
vt 0 1
vt 1 1
vt 1 0
vt 0 0
vt 0 1
vt 1 1
vt 1 0
vt 0 0
vt 0 1
vt 1 1
vt 1 0
vt 0 0
vn 0 0 -1
vn -1 0 0
vn 0 1 0
vn 0 -1 0
usemtl m_6cbae7ee-407f-4413-6b0e-0c2c27e5c5b4
f 52/104/26 55/103/26 53/102/26 50/101/26
f 55/108/27 56/107/27 54/106/27 53/105/27
f 54/112/28 49/111/28 50/110/28 53/109/28
f 55/116/29 52/115/29 51/114/29 56/113/29
o cube
v -0.09375 0.625 0.28125
v -0.09375 0.625 0.09375
v -0.09375 0.4375 0.28125
v -0.09375 0.4375 0.09375
v -0.28125 0.625 0.09375
v -0.28125 0.625 0.28125
v -0.28125 0.4375 0.09375
v -0.28125 0.4375 0.28125
vt 0 1
vt 1 1
vt 1 0
vt 0 0
vt 0 1
vt 1 1
vt 1 0
vt 0 0
vt 0 1
vt 1 1
vt 1 0
vt 0 0
vt 0 1
vt 1 1
vt 1 0
vt 0 0
vn 0 0 1
vn -1 0 0
vn 0 1 0
vn 0 -1 0
usemtl m_6cbae7ee-407f-4413-6b0e-0c2c27e5c5b4
f 64/120/30 59/119/30 57/118/30 62/117/30
f 63/124/31 64/123/31 62/122/31 61/121/31
f 62/128/32 57/127/32 58/126/32 61/125/32
f 63/132/33 60/131/33 59/130/33 64/129/33
o cube
v 0.28125 0.625 0.28125
v 0.28125 0.625 0.09375
v 0.28125 0.4375 0.28125
v 0.28125 0.4375 0.09375
v 0.09375 0.625 0.09375
v 0.09375 0.625 0.28125
v 0.09375 0.4375 0.09375
v 0.09375 0.4375 0.28125
vt 0 1
vt 1 1
vt 1 0
vt 0 0
vt 0 1
vt 1 1
vt 1 0
vt 0 0
vt 0 1
vt 1 1
vt 1 0
vt 0 0
vt 0 1
vt 1 1
vt 1 0
vt 0 0
vn 1 0 0
vn 0 0 1
vn 0 1 0
vn 0 -1 0
usemtl m_6cbae7ee-407f-4413-6b0e-0c2c27e5c5b4
f 67/136/34 68/135/34 66/134/34 65/133/34
f 72/140/35 67/139/35 65/138/35 70/137/35
f 70/144/36 65/143/36 66/142/36 69/141/36
f 71/148/37 68/147/37 67/146/37 72/145/37
o cube
v 0.28125 0.625 -0.09375
v 0.28125 0.625 -0.28125
v 0.28125 0.4375 -0.09375
v 0.28125 0.4375 -0.28125
v 0.09375 0.625 -0.28125
v 0.09375 0.625 -0.09375
v 0.09375 0.4375 -0.28125
v 0.09375 0.4375 -0.09375
vt 0 1
vt 1 1
vt 1 0
vt 0 0
vt 0 1
vt 1 1
vt 1 0
vt 0 0
vt 0 1
vt 1 1
vt 1 0
vt 0 0
vt 0 1
vt 1 1
vt 1 0
vt 0 0
vn 0 0 -1
vn 1 0 0
vn 0 1 0
vn 0 -1 0
usemtl m_6cbae7ee-407f-4413-6b0e-0c2c27e5c5b4
f 76/152/38 79/151/38 77/150/38 74/149/38
f 75/156/39 76/155/39 74/154/39 73/153/39
f 78/160/40 73/159/40 74/158/40 77/157/40
f 79/164/41 76/163/41 75/162/41 80/161/41
o cube
v 0.46875 0.625 0.09375
v 0.46875 0.625 -0.09375
v 0.46875 0.4375 0.09375
v 0.46875 0.4375 -0.09375
v 0.28125 0.625 -0.09375
v 0.28125 0.625 0.09375
v 0.28125 0.4375 -0.09375
v 0.28125 0.4375 0.09375
vt 0 1
vt 1 1
vt 1 0
vt 0 0
vt 0 1
vt 1 1
vt 1 0
vt 0 0
vt 0 1
vt 1 1
vt 1 0
vt 0 0
vt 0 1
vt 1 1
vt 1 0
vt 0 0
vt 0 1
vt 1 1
vt 1 0
vt 0 0
vn 0 0 -1
vn 1 0 0
vn 0 0 1
vn 0 1 0
vn 0 -1 0
usemtl m_6cbae7ee-407f-4413-6b0e-0c2c27e5c5b4
f 84/168/42 87/167/42 85/166/42 82/165/42
f 83/172/43 84/171/43 82/170/43 81/169/43
f 88/176/44 83/175/44 81/174/44 86/173/44
f 86/180/45 81/179/45 82/178/45 85/177/45
f 87/184/46 84/183/46 83/182/46 88/181/46
o cube
v -0.28125 0.625 0.09375
v -0.28125 0.625 -0.09375
v -0.28125 0.4375 0.09375
v -0.28125 0.4375 -0.09375
v -0.46875 0.625 -0.09375
v -0.46875 0.625 0.09375
v -0.46875 0.4375 -0.09375
v -0.46875 0.4375 0.09375
vt 0 1
vt 1 1
vt 1 0
vt 0 0
vt 0 1
vt 1 1
vt 1 0
vt 0 0
vt 0 1
vt 1 1
vt 1 0
vt 0 0
vt 0 1
vt 1 1
vt 1 0
vt 0 0
vt 0 1
vt 1 1
vt 1 0
vt 0 0
vn 0 0 -1
vn 0 0 1
vn -1 0 0
vn 0 1 0
vn 0 -1 0
usemtl m_6cbae7ee-407f-4413-6b0e-0c2c27e5c5b4
f 92/188/47 95/187/47 93/186/47 90/185/47
f 96/192/48 91/191/48 89/190/48 94/189/48
f 95/196/49 96/195/49 94/194/49 93/193/49
f 94/200/50 89/199/50 90/198/50 93/197/50
f 95/204/51 92/203/51 91/202/51 96/201/51
o cube
v 0.09375 0.625 0.46875
v 0.09375 0.625 0.28125
v 0.09375 0.4375 0.46875
v 0.09375 0.4375 0.28125
v -0.09375 0.625 0.28125
v -0.09375 0.625 0.46875
v -0.09375 0.4375 0.28125
v -0.09375 0.4375 0.46875
vt 0 1
vt 1 1
vt 1 0
vt 0 0
vt 0 1
vt 1 1
vt 1 0
vt 0 0
vt 0 1
vt 1 1
vt 1 0
vt 0 0
vt 0 1
vt 1 1
vt 1 0
vt 0 0
vt 0 1
vt 1 1
vt 1 0
vt 0 0
vn 1 0 0
vn 0 0 1
vn -1 0 0
vn 0 1 0
vn 0 -1 0
usemtl m_6cbae7ee-407f-4413-6b0e-0c2c27e5c5b4
f 99/208/52 100/207/52 98/206/52 97/205/52
f 104/212/53 99/211/53 97/210/53 102/209/53
f 103/216/54 104/215/54 102/214/54 101/213/54
f 102/220/55 97/219/55 98/218/55 101/217/55
f 103/224/56 100/223/56 99/222/56 104/221/56
o cube
v 0.09375 0.8125 0.28125
v 0.09375 0.8125 0.09375
v 0.09375 0.625 0.28125
v 0.09375 0.625 0.09375
v -0.09375 0.8125 0.09375
v -0.09375 0.8125 0.28125
v -0.09375 0.625 0.09375
v -0.09375 0.625 0.28125
vt 0 1
vt 1 1
vt 1 0
vt 0 0
vt 0 1
vt 1 1
vt 1 0
vt 0 0
vt 0 1
vt 1 1
vt 1 0
vt 0 0
vt 0 1
vt 1 1
vt 1 0
vt 0 0
vn 1 0 0
vn 0 0 1
vn -1 0 0
vn 0 1 0
usemtl m_6cbae7ee-407f-4413-6b0e-0c2c27e5c5b4
f 107/228/57 108/227/57 106/226/57 105/225/57
f 112/232/58 107/231/58 105/230/58 110/229/58
f 111/236/59 112/235/59 110/234/59 109/233/59
f 110/240/60 105/239/60 106/238/60 109/237/60
o cube
v 0.09375 0.8125 -0.09375
v 0.09375 0.8125 -0.28125
v 0.09375 0.625 -0.09375
v 0.09375 0.625 -0.28125
v -0.09375 0.8125 -0.28125
v -0.09375 0.8125 -0.09375
v -0.09375 0.625 -0.28125
v -0.09375 0.625 -0.09375
vt 0 1
vt 1 1
vt 1 0
vt 0 0
vt 0 1
vt 1 1
vt 1 0
vt 0 0
vt 0 1
vt 1 1
vt 1 0
vt 0 0
vt 0 1
vt 1 1
vt 1 0
vt 0 0
vn 0 0 -1
vn 1 0 0
vn -1 0 0
vn 0 1 0
usemtl m_6cbae7ee-407f-4413-6b0e-0c2c27e5c5b4
f 116/244/61 119/243/61 117/242/61 114/241/61
f 115/248/62 116/247/62 114/246/62 113/245/62
f 119/252/63 120/251/63 118/250/63 117/249/63
f 118/256/64 113/255/64 114/254/64 117/253/64
o cube
v 0.28125 0.8125 0.09375
v 0.28125 0.8125 -0.09375
v 0.28125 0.625 0.09375
v 0.28125 0.625 -0.09375
v 0.09375 0.8125 -0.09375
v 0.09375 0.8125 0.09375
v 0.09375 0.625 -0.09375
v 0.09375 0.625 0.09375
vt 0 1
vt 1 1
vt 1 0
vt 0 0
vt 0 1
vt 1 1
vt 1 0
vt 0 0
vt 0 1
vt 1 1
vt 1 0
vt 0 0
vt 0 1
vt 1 1
vt 1 0
vt 0 0
vn 0 0 -1
vn 1 0 0
vn 0 0 1
vn 0 1 0
usemtl m_6cbae7ee-407f-4413-6b0e-0c2c27e5c5b4
f 124/260/65 127/259/65 125/258/65 122/257/65
f 123/264/66 124/263/66 122/262/66 121/261/66
f 128/268/67 123/267/67 121/266/67 126/265/67
f 126/272/68 121/271/68 122/270/68 125/269/68
o cube
v -0.09375 0.8125 0.09375
v -0.09375 0.8125 -0.09375
v -0.09375 0.625 0.09375
v -0.09375 0.625 -0.09375
v -0.28125 0.8125 -0.09375
v -0.28125 0.8125 0.09375
v -0.28125 0.625 -0.09375
v -0.28125 0.625 0.09375
vt 0 1
vt 1 1
vt 1 0
vt 0 0
vt 0 1
vt 1 1
vt 1 0
vt 0 0
vt 0 1
vt 1 1
vt 1 0
vt 0 0
vt 0 1
vt 1 1
vt 1 0
vt 0 0
vn 0 0 -1
vn 0 0 1
vn -1 0 0
vn 0 1 0
usemtl m_6cbae7ee-407f-4413-6b0e-0c2c27e5c5b4
f 132/276/69 135/275/69 133/274/69 130/273/69
f 136/280/70 131/279/70 129/278/70 134/277/70
f 135/284/71 136/283/71 134/282/71 133/281/71
f 134/288/72 129/287/72 130/286/72 133/285/72
o cube
v 0.09375 1 0.09375
v 0.09375 1 -0.09375
v 0.09375 0.8125 0.09375
v 0.09375 0.8125 -0.09375
v -0.09375 1 -0.09375
v -0.09375 1 0.09375
v -0.09375 0.8125 -0.09375
v -0.09375 0.8125 0.09375
vt 0 1
vt 1 1
vt 1 0
vt 0 0
vt 0 1
vt 1 1
vt 1 0
vt 0 0
vt 0 1
vt 1 1
vt 1 0
vt 0 0
vt 0 1
vt 1 1
vt 1 0
vt 0 0
vt 0 1
vt 1 1
vt 1 0
vt 0 0
vn 0 0 -1
vn 1 0 0
vn 0 0 1
vn -1 0 0
vn 0 1 0
usemtl m_6cbae7ee-407f-4413-6b0e-0c2c27e5c5b4
f 140/292/73 143/291/73 141/290/73 138/289/73
f 139/296/74 140/295/74 138/294/74 137/293/74
f 144/300/75 139/299/75 137/298/75 142/297/75
f 143/304/76 144/303/76 142/302/76 141/301/76
f 142/308/77 137/307/77 138/306/77 141/305/77